<svg width="270" height="135" viewBox="0 0 270 135" fill="none" xmlns="http://www.w3.org/2000/svg">
<g clip-path="url(#clip0)">
<rect width="270" height="135" fill="#007880"/>
<g opacity="0.45">
<path fill-rule="evenodd" clip-rule="evenodd" d="M269.608 84.6133C269.439 84.6133 269.302 84.476 269.302 84.3067C269.302 84.1373 269.439 84 269.608 84C269.778 84 269.915 84.1373 269.915 84.3067C269.915 84.476 269.778 84.6133 269.608 84.6133Z" fill="black"/>
<path fill-rule="evenodd" clip-rule="evenodd" d="M264.177 84.6133C264.008 84.6133 263.871 84.476 263.871 84.3067C263.871 84.1373 264.008 84 264.177 84C264.347 84 264.484 84.1373 264.484 84.3067C264.484 84.476 264.347 84.6133 264.177 84.6133Z" fill="black"/>
<path fill-rule="evenodd" clip-rule="evenodd" d="M258.746 84.6133C258.577 84.6133 258.439 84.476 258.439 84.3067C258.439 84.1373 258.577 84 258.746 84C258.915 84 259.053 84.1373 259.053 84.3067C259.053 84.476 258.915 84.6133 258.746 84.6133Z" fill="black"/>
<path fill-rule="evenodd" clip-rule="evenodd" d="M253.129 84.6133C252.959 84.6133 252.822 84.476 252.822 84.3067C252.822 84.1373 252.959 84 253.129 84C253.298 84 253.435 84.1373 253.435 84.3067C253.435 84.476 253.298 84.6133 253.129 84.6133Z" fill="black"/>
<path fill-rule="evenodd" clip-rule="evenodd" d="M247.512 84.6133C247.342 84.6133 247.205 84.476 247.205 84.3067C247.205 84.1373 247.342 84 247.512 84C247.681 84 247.819 84.1373 247.819 84.3067C247.819 84.476 247.681 84.6133 247.512 84.6133Z" fill="black"/>
<path fill-rule="evenodd" clip-rule="evenodd" d="M241.895 84.6133C241.725 84.6133 241.588 84.476 241.588 84.3067C241.588 84.1373 241.725 84 241.895 84C242.064 84 242.201 84.1373 242.201 84.3067C242.201 84.476 242.064 84.6133 241.895 84.6133Z" fill="black"/>
<path fill-rule="evenodd" clip-rule="evenodd" d="M236.464 84.6133C236.294 84.6133 236.157 84.476 236.157 84.3067C236.157 84.1373 236.294 84 236.464 84C236.633 84 236.77 84.1373 236.77 84.3067C236.77 84.476 236.633 84.6133 236.464 84.6133Z" fill="black"/>
<path fill-rule="evenodd" clip-rule="evenodd" d="M230.846 84.6133C230.677 84.6133 230.54 84.476 230.54 84.3067C230.54 84.1373 230.677 84 230.846 84C231.016 84 231.153 84.1373 231.153 84.3067C231.153 84.476 231.016 84.6133 230.846 84.6133Z" fill="black"/>
<path fill-rule="evenodd" clip-rule="evenodd" d="M225.229 84.6133C225.06 84.6133 224.923 84.476 224.923 84.3067C224.923 84.1373 225.06 84 225.229 84C225.399 84 225.536 84.1373 225.536 84.3067C225.536 84.476 225.399 84.6133 225.229 84.6133Z" fill="black"/>
<path fill-rule="evenodd" clip-rule="evenodd" d="M219.612 84.6133C219.443 84.6133 219.305 84.476 219.305 84.3067C219.305 84.1373 219.443 84 219.612 84C219.782 84 219.919 84.1373 219.919 84.3067C219.919 84.476 219.782 84.6133 219.612 84.6133Z" fill="black"/>
<path fill-rule="evenodd" clip-rule="evenodd" d="M269.608 90.3978C269.439 90.3978 269.302 90.2605 269.302 90.0911C269.302 89.9217 269.439 89.7844 269.608 89.7844C269.778 89.7844 269.915 89.9217 269.915 90.0911C269.915 90.2605 269.778 90.3978 269.608 90.3978Z" fill="black"/>
<path fill-rule="evenodd" clip-rule="evenodd" d="M264.177 90.3978C264.008 90.3978 263.871 90.2605 263.871 90.0911C263.871 89.9217 264.008 89.7844 264.177 89.7844C264.347 89.7844 264.484 89.9217 264.484 90.0911C264.484 90.2605 264.347 90.3978 264.177 90.3978Z" fill="black"/>
<path fill-rule="evenodd" clip-rule="evenodd" d="M258.746 90.3978C258.577 90.3978 258.439 90.2605 258.439 90.0911C258.439 89.9217 258.577 89.7844 258.746 89.7844C258.915 89.7844 259.053 89.9217 259.053 90.0911C259.053 90.2605 258.915 90.3978 258.746 90.3978Z" fill="black"/>
<path fill-rule="evenodd" clip-rule="evenodd" d="M253.129 90.3978C252.959 90.3978 252.822 90.2605 252.822 90.0911C252.822 89.9217 252.959 89.7844 253.129 89.7844C253.298 89.7844 253.435 89.9217 253.435 90.0911C253.435 90.2605 253.298 90.3978 253.129 90.3978Z" fill="black"/>
<path fill-rule="evenodd" clip-rule="evenodd" d="M247.512 90.3978C247.342 90.3978 247.205 90.2605 247.205 90.0911C247.205 89.9217 247.342 89.7844 247.512 89.7844C247.681 89.7844 247.819 89.9217 247.819 90.0911C247.819 90.2605 247.681 90.3978 247.512 90.3978Z" fill="black"/>
<path fill-rule="evenodd" clip-rule="evenodd" d="M241.895 90.3978C241.725 90.3978 241.588 90.2605 241.588 90.0911C241.588 89.9217 241.725 89.7844 241.895 89.7844C242.064 89.7844 242.201 89.9217 242.201 90.0911C242.201 90.2605 242.064 90.3978 241.895 90.3978Z" fill="black"/>
<path fill-rule="evenodd" clip-rule="evenodd" d="M236.464 90.3978C236.294 90.3978 236.157 90.2605 236.157 90.0911C236.157 89.9217 236.294 89.7844 236.464 89.7844C236.633 89.7844 236.77 89.9217 236.77 90.0911C236.77 90.2605 236.633 90.3978 236.464 90.3978Z" fill="black"/>
<path fill-rule="evenodd" clip-rule="evenodd" d="M230.846 90.3978C230.677 90.3978 230.54 90.2605 230.54 90.0911C230.54 89.9217 230.677 89.7844 230.846 89.7844C231.016 89.7844 231.153 89.9217 231.153 90.0911C231.153 90.2605 231.016 90.3978 230.846 90.3978Z" fill="black"/>
<path fill-rule="evenodd" clip-rule="evenodd" d="M225.229 90.3978C225.06 90.3978 224.923 90.2605 224.923 90.0911C224.923 89.9217 225.06 89.7844 225.229 89.7844C225.399 89.7844 225.536 89.9217 225.536 90.0911C225.536 90.2605 225.399 90.3978 225.229 90.3978Z" fill="black"/>
<path fill-rule="evenodd" clip-rule="evenodd" d="M219.612 90.3978C219.443 90.3978 219.305 90.2605 219.305 90.0911C219.305 89.9217 219.443 89.7844 219.612 89.7844C219.782 89.7844 219.919 89.9217 219.919 90.0911C219.919 90.2605 219.782 90.3978 219.612 90.3978Z" fill="black"/>
<path fill-rule="evenodd" clip-rule="evenodd" d="M269.608 95.9961C269.439 95.9961 269.302 95.8588 269.302 95.6895C269.302 95.5201 269.439 95.3828 269.608 95.3828C269.778 95.3828 269.915 95.5201 269.915 95.6895C269.915 95.8588 269.778 95.9961 269.608 95.9961Z" fill="black"/>
<path fill-rule="evenodd" clip-rule="evenodd" d="M264.177 95.9961C264.008 95.9961 263.871 95.8588 263.871 95.6895C263.871 95.5201 264.008 95.3828 264.177 95.3828C264.347 95.3828 264.484 95.5201 264.484 95.6895C264.484 95.8588 264.347 95.9961 264.177 95.9961Z" fill="black"/>
<path fill-rule="evenodd" clip-rule="evenodd" d="M258.746 95.9961C258.577 95.9961 258.439 95.8588 258.439 95.6895C258.439 95.5201 258.577 95.3828 258.746 95.3828C258.915 95.3828 259.053 95.5201 259.053 95.6895C259.053 95.8588 258.915 95.9961 258.746 95.9961Z" fill="black"/>
<path fill-rule="evenodd" clip-rule="evenodd" d="M253.129 95.9961C252.959 95.9961 252.822 95.8588 252.822 95.6895C252.822 95.5201 252.959 95.3828 253.129 95.3828C253.298 95.3828 253.435 95.5201 253.435 95.6895C253.435 95.8588 253.298 95.9961 253.129 95.9961Z" fill="black"/>
<path fill-rule="evenodd" clip-rule="evenodd" d="M247.512 95.9961C247.342 95.9961 247.205 95.8588 247.205 95.6895C247.205 95.5201 247.342 95.3828 247.512 95.3828C247.681 95.3828 247.819 95.5201 247.819 95.6895C247.819 95.8588 247.681 95.9961 247.512 95.9961Z" fill="black"/>
<path fill-rule="evenodd" clip-rule="evenodd" d="M241.895 95.9961C241.725 95.9961 241.588 95.8588 241.588 95.6895C241.588 95.5201 241.725 95.3828 241.895 95.3828C242.064 95.3828 242.201 95.5201 242.201 95.6895C242.201 95.8588 242.064 95.9961 241.895 95.9961Z" fill="black"/>
<path fill-rule="evenodd" clip-rule="evenodd" d="M236.464 95.9961C236.294 95.9961 236.157 95.8588 236.157 95.6895C236.157 95.5201 236.294 95.3828 236.464 95.3828C236.633 95.3828 236.77 95.5201 236.77 95.6895C236.77 95.8588 236.633 95.9961 236.464 95.9961Z" fill="black"/>
<path fill-rule="evenodd" clip-rule="evenodd" d="M230.846 95.9961C230.677 95.9961 230.54 95.8588 230.54 95.6895C230.54 95.5201 230.677 95.3828 230.846 95.3828C231.016 95.3828 231.153 95.5201 231.153 95.6895C231.153 95.8588 231.016 95.9961 230.846 95.9961Z" fill="black"/>
<path fill-rule="evenodd" clip-rule="evenodd" d="M225.229 95.9961C225.06 95.9961 224.923 95.8588 224.923 95.6895C224.923 95.5201 225.06 95.3828 225.229 95.3828C225.399 95.3828 225.536 95.5201 225.536 95.6895C225.536 95.8588 225.399 95.9961 225.229 95.9961Z" fill="black"/>
<path fill-rule="evenodd" clip-rule="evenodd" d="M219.612 95.9961C219.443 95.9961 219.305 95.8588 219.305 95.6895C219.305 95.5201 219.443 95.3828 219.612 95.3828C219.782 95.3828 219.919 95.5201 219.919 95.6895C219.919 95.8588 219.782 95.9961 219.612 95.9961Z" fill="black"/>
<path fill-rule="evenodd" clip-rule="evenodd" d="M269.608 101.781C269.439 101.781 269.302 101.643 269.302 101.474C269.302 101.305 269.439 101.167 269.608 101.167C269.778 101.167 269.915 101.305 269.915 101.474C269.915 101.643 269.778 101.781 269.608 101.781Z" fill="black"/>
<path fill-rule="evenodd" clip-rule="evenodd" d="M264.177 101.781C264.008 101.781 263.871 101.643 263.871 101.474C263.871 101.305 264.008 101.167 264.177 101.167C264.347 101.167 264.484 101.305 264.484 101.474C264.484 101.643 264.347 101.781 264.177 101.781Z" fill="black"/>
<path fill-rule="evenodd" clip-rule="evenodd" d="M258.746 101.781C258.577 101.781 258.439 101.643 258.439 101.474C258.439 101.305 258.577 101.167 258.746 101.167C258.915 101.167 259.053 101.305 259.053 101.474C259.053 101.643 258.915 101.781 258.746 101.781Z" fill="black"/>
<path fill-rule="evenodd" clip-rule="evenodd" d="M253.129 101.781C252.959 101.781 252.822 101.643 252.822 101.474C252.822 101.305 252.959 101.167 253.129 101.167C253.298 101.167 253.435 101.305 253.435 101.474C253.435 101.643 253.298 101.781 253.129 101.781Z" fill="black"/>
<path fill-rule="evenodd" clip-rule="evenodd" d="M247.512 101.781C247.342 101.781 247.205 101.643 247.205 101.474C247.205 101.305 247.342 101.167 247.512 101.167C247.681 101.167 247.819 101.305 247.819 101.474C247.819 101.643 247.681 101.781 247.512 101.781Z" fill="black"/>
<path fill-rule="evenodd" clip-rule="evenodd" d="M241.895 101.781C241.725 101.781 241.588 101.643 241.588 101.474C241.588 101.305 241.725 101.167 241.895 101.167C242.064 101.167 242.201 101.305 242.201 101.474C242.201 101.643 242.064 101.781 241.895 101.781Z" fill="black"/>
<path fill-rule="evenodd" clip-rule="evenodd" d="M236.464 101.781C236.294 101.781 236.157 101.643 236.157 101.474C236.157 101.305 236.294 101.167 236.464 101.167C236.633 101.167 236.77 101.305 236.77 101.474C236.77 101.643 236.633 101.781 236.464 101.781Z" fill="black"/>
<path fill-rule="evenodd" clip-rule="evenodd" d="M230.846 101.781C230.677 101.781 230.54 101.643 230.54 101.474C230.54 101.305 230.677 101.167 230.846 101.167C231.016 101.167 231.153 101.305 231.153 101.474C231.153 101.643 231.016 101.781 230.846 101.781Z" fill="black"/>
<path fill-rule="evenodd" clip-rule="evenodd" d="M225.229 101.781C225.06 101.781 224.923 101.643 224.923 101.474C224.923 101.305 225.06 101.167 225.229 101.167C225.399 101.167 225.536 101.305 225.536 101.474C225.536 101.643 225.399 101.781 225.229 101.781Z" fill="black"/>
<path fill-rule="evenodd" clip-rule="evenodd" d="M219.612 101.781C219.443 101.781 219.305 101.643 219.305 101.474C219.305 101.305 219.443 101.167 219.612 101.167C219.782 101.167 219.919 101.305 219.919 101.474C219.919 101.643 219.782 101.781 219.612 101.781Z" fill="black"/>
<path fill-rule="evenodd" clip-rule="evenodd" d="M269.608 107.193C269.439 107.193 269.302 107.056 269.302 106.887C269.302 106.717 269.439 106.58 269.608 106.58C269.778 106.58 269.915 106.717 269.915 106.887C269.915 107.056 269.778 107.193 269.608 107.193Z" fill="black"/>
<path fill-rule="evenodd" clip-rule="evenodd" d="M264.177 107.193C264.008 107.193 263.871 107.056 263.871 106.887C263.871 106.717 264.008 106.58 264.177 106.58C264.347 106.58 264.484 106.717 264.484 106.887C264.484 107.056 264.347 107.193 264.177 107.193Z" fill="black"/>
<path fill-rule="evenodd" clip-rule="evenodd" d="M258.746 107.193C258.577 107.193 258.439 107.056 258.439 106.887C258.439 106.717 258.577 106.58 258.746 106.58C258.915 106.58 259.053 106.717 259.053 106.887C259.053 107.056 258.915 107.193 258.746 107.193Z" fill="black"/>
<path fill-rule="evenodd" clip-rule="evenodd" d="M253.129 107.193C252.959 107.193 252.822 107.056 252.822 106.887C252.822 106.717 252.959 106.58 253.129 106.58C253.298 106.58 253.435 106.717 253.435 106.887C253.435 107.056 253.298 107.193 253.129 107.193Z" fill="black"/>
<path fill-rule="evenodd" clip-rule="evenodd" d="M247.512 107.193C247.342 107.193 247.205 107.056 247.205 106.887C247.205 106.717 247.342 106.58 247.512 106.58C247.681 106.58 247.819 106.717 247.819 106.887C247.819 107.056 247.681 107.193 247.512 107.193Z" fill="black"/>
<path fill-rule="evenodd" clip-rule="evenodd" d="M241.895 107.193C241.725 107.193 241.588 107.056 241.588 106.887C241.588 106.717 241.725 106.58 241.895 106.58C242.064 106.58 242.201 106.717 242.201 106.887C242.201 107.056 242.064 107.193 241.895 107.193Z" fill="black"/>
<path fill-rule="evenodd" clip-rule="evenodd" d="M236.464 107.193C236.294 107.193 236.157 107.056 236.157 106.887C236.157 106.717 236.294 106.58 236.464 106.58C236.633 106.58 236.77 106.717 236.77 106.887C236.77 107.056 236.633 107.193 236.464 107.193Z" fill="black"/>
<path fill-rule="evenodd" clip-rule="evenodd" d="M230.846 107.193C230.677 107.193 230.54 107.056 230.54 106.887C230.54 106.717 230.677 106.58 230.846 106.58C231.016 106.58 231.153 106.717 231.153 106.887C231.153 107.056 231.016 107.193 230.846 107.193Z" fill="black"/>
<path fill-rule="evenodd" clip-rule="evenodd" d="M225.229 107.193C225.06 107.193 224.923 107.056 224.923 106.887C224.923 106.717 225.06 106.58 225.229 106.58C225.399 106.58 225.536 106.717 225.536 106.887C225.536 107.056 225.399 107.193 225.229 107.193Z" fill="black"/>
<path fill-rule="evenodd" clip-rule="evenodd" d="M219.612 107.193C219.443 107.193 219.305 107.056 219.305 106.887C219.305 106.717 219.443 106.58 219.612 106.58C219.782 106.58 219.919 106.717 219.919 106.887C219.919 107.056 219.782 107.193 219.612 107.193Z" fill="black"/>
<path fill-rule="evenodd" clip-rule="evenodd" d="M269.608 112.792C269.439 112.792 269.302 112.655 269.302 112.485C269.302 112.316 269.439 112.178 269.608 112.178C269.778 112.178 269.915 112.316 269.915 112.485C269.915 112.655 269.778 112.792 269.608 112.792Z" fill="black"/>
<path fill-rule="evenodd" clip-rule="evenodd" d="M264.177 112.792C264.008 112.792 263.871 112.655 263.871 112.485C263.871 112.316 264.008 112.178 264.177 112.178C264.347 112.178 264.484 112.316 264.484 112.485C264.484 112.655 264.347 112.792 264.177 112.792Z" fill="black"/>
<path fill-rule="evenodd" clip-rule="evenodd" d="M258.746 112.792C258.577 112.792 258.439 112.655 258.439 112.485C258.439 112.316 258.577 112.178 258.746 112.178C258.915 112.178 259.053 112.316 259.053 112.485C259.053 112.655 258.915 112.792 258.746 112.792Z" fill="black"/>
<path fill-rule="evenodd" clip-rule="evenodd" d="M253.129 112.792C252.959 112.792 252.822 112.655 252.822 112.485C252.822 112.316 252.959 112.178 253.129 112.178C253.298 112.178 253.435 112.316 253.435 112.485C253.435 112.655 253.298 112.792 253.129 112.792Z" fill="black"/>
<path fill-rule="evenodd" clip-rule="evenodd" d="M247.512 112.792C247.342 112.792 247.205 112.655 247.205 112.485C247.205 112.316 247.342 112.178 247.512 112.178C247.681 112.178 247.819 112.316 247.819 112.485C247.819 112.655 247.681 112.792 247.512 112.792Z" fill="black"/>
<path fill-rule="evenodd" clip-rule="evenodd" d="M241.895 112.792C241.725 112.792 241.588 112.655 241.588 112.485C241.588 112.316 241.725 112.178 241.895 112.178C242.064 112.178 242.201 112.316 242.201 112.485C242.201 112.655 242.064 112.792 241.895 112.792Z" fill="black"/>
<path fill-rule="evenodd" clip-rule="evenodd" d="M236.464 112.792C236.294 112.792 236.157 112.655 236.157 112.485C236.157 112.316 236.294 112.178 236.464 112.178C236.633 112.178 236.77 112.316 236.77 112.485C236.77 112.655 236.633 112.792 236.464 112.792Z" fill="black"/>
<path fill-rule="evenodd" clip-rule="evenodd" d="M230.846 112.792C230.677 112.792 230.54 112.655 230.54 112.485C230.54 112.316 230.677 112.178 230.846 112.178C231.016 112.178 231.153 112.316 231.153 112.485C231.153 112.655 231.016 112.792 230.846 112.792Z" fill="black"/>
<path fill-rule="evenodd" clip-rule="evenodd" d="M225.229 112.792C225.06 112.792 224.923 112.655 224.923 112.485C224.923 112.316 225.06 112.178 225.229 112.178C225.399 112.178 225.536 112.316 225.536 112.485C225.536 112.655 225.399 112.792 225.229 112.792Z" fill="black"/>
<path fill-rule="evenodd" clip-rule="evenodd" d="M219.612 112.792C219.443 112.792 219.305 112.655 219.305 112.485C219.305 112.316 219.443 112.178 219.612 112.178C219.782 112.178 219.919 112.316 219.919 112.485C219.919 112.655 219.782 112.792 219.612 112.792Z" fill="black"/>
<path fill-rule="evenodd" clip-rule="evenodd" d="M269.608 118.39C269.439 118.39 269.302 118.253 269.302 118.084C269.302 117.914 269.439 117.777 269.608 117.777C269.778 117.777 269.915 117.914 269.915 118.084C269.915 118.253 269.778 118.39 269.608 118.39Z" fill="black"/>
<path fill-rule="evenodd" clip-rule="evenodd" d="M264.177 118.39C264.008 118.39 263.871 118.253 263.871 118.084C263.871 117.914 264.008 117.777 264.177 117.777C264.347 117.777 264.484 117.914 264.484 118.084C264.484 118.253 264.347 118.39 264.177 118.39Z" fill="black"/>
<path fill-rule="evenodd" clip-rule="evenodd" d="M258.746 118.39C258.577 118.39 258.439 118.253 258.439 118.084C258.439 117.914 258.577 117.777 258.746 117.777C258.915 117.777 259.053 117.914 259.053 118.084C259.053 118.253 258.915 118.39 258.746 118.39Z" fill="black"/>
<path fill-rule="evenodd" clip-rule="evenodd" d="M253.129 118.39C252.959 118.39 252.822 118.253 252.822 118.084C252.822 117.914 252.959 117.777 253.129 117.777C253.298 117.777 253.435 117.914 253.435 118.084C253.435 118.253 253.298 118.39 253.129 118.39Z" fill="black"/>
<path fill-rule="evenodd" clip-rule="evenodd" d="M247.512 118.39C247.342 118.39 247.205 118.253 247.205 118.084C247.205 117.914 247.342 117.777 247.512 117.777C247.681 117.777 247.819 117.914 247.819 118.084C247.819 118.253 247.681 118.39 247.512 118.39Z" fill="black"/>
<path fill-rule="evenodd" clip-rule="evenodd" d="M241.895 118.39C241.725 118.39 241.588 118.253 241.588 118.084C241.588 117.914 241.725 117.777 241.895 117.777C242.064 117.777 242.201 117.914 242.201 118.084C242.201 118.253 242.064 118.39 241.895 118.39Z" fill="black"/>
<path fill-rule="evenodd" clip-rule="evenodd" d="M236.464 118.39C236.294 118.39 236.157 118.253 236.157 118.084C236.157 117.914 236.294 117.777 236.464 117.777C236.633 117.777 236.77 117.914 236.77 118.084C236.77 118.253 236.633 118.39 236.464 118.39Z" fill="black"/>
<path fill-rule="evenodd" clip-rule="evenodd" d="M230.846 118.39C230.677 118.39 230.54 118.253 230.54 118.084C230.54 117.914 230.677 117.777 230.846 117.777C231.016 117.777 231.153 117.914 231.153 118.084C231.153 118.253 231.016 118.39 230.846 118.39Z" fill="black"/>
<path fill-rule="evenodd" clip-rule="evenodd" d="M225.229 118.39C225.06 118.39 224.923 118.253 224.923 118.084C224.923 117.914 225.06 117.777 225.229 117.777C225.399 117.777 225.536 117.914 225.536 118.084C225.536 118.253 225.399 118.39 225.229 118.39Z" fill="black"/>
<path fill-rule="evenodd" clip-rule="evenodd" d="M219.612 118.39C219.443 118.39 219.305 118.253 219.305 118.084C219.305 117.914 219.443 117.777 219.612 117.777C219.782 117.777 219.919 117.914 219.919 118.084C219.919 118.253 219.782 118.39 219.612 118.39Z" fill="black"/>
<path fill-rule="evenodd" clip-rule="evenodd" d="M269.608 123.989C269.439 123.989 269.302 123.852 269.302 123.682C269.302 123.513 269.439 123.375 269.608 123.375C269.778 123.375 269.915 123.513 269.915 123.682C269.915 123.852 269.778 123.989 269.608 123.989Z" fill="black"/>
<path fill-rule="evenodd" clip-rule="evenodd" d="M264.177 123.989C264.008 123.989 263.871 123.852 263.871 123.682C263.871 123.513 264.008 123.375 264.177 123.375C264.347 123.375 264.484 123.513 264.484 123.682C264.484 123.852 264.347 123.989 264.177 123.989Z" fill="black"/>
<path fill-rule="evenodd" clip-rule="evenodd" d="M258.746 123.989C258.577 123.989 258.439 123.852 258.439 123.682C258.439 123.513 258.577 123.375 258.746 123.375C258.915 123.375 259.053 123.513 259.053 123.682C259.053 123.852 258.915 123.989 258.746 123.989Z" fill="black"/>
<path fill-rule="evenodd" clip-rule="evenodd" d="M253.129 123.989C252.959 123.989 252.822 123.852 252.822 123.682C252.822 123.513 252.959 123.375 253.129 123.375C253.298 123.375 253.435 123.513 253.435 123.682C253.435 123.852 253.298 123.989 253.129 123.989Z" fill="black"/>
<path fill-rule="evenodd" clip-rule="evenodd" d="M247.512 123.989C247.342 123.989 247.205 123.852 247.205 123.682C247.205 123.513 247.342 123.375 247.512 123.375C247.681 123.375 247.819 123.513 247.819 123.682C247.819 123.852 247.681 123.989 247.512 123.989Z" fill="black"/>
<path fill-rule="evenodd" clip-rule="evenodd" d="M241.895 123.989C241.725 123.989 241.588 123.852 241.588 123.682C241.588 123.513 241.725 123.375 241.895 123.375C242.064 123.375 242.201 123.513 242.201 123.682C242.201 123.852 242.064 123.989 241.895 123.989Z" fill="black"/>
<path fill-rule="evenodd" clip-rule="evenodd" d="M236.464 123.989C236.294 123.989 236.157 123.852 236.157 123.682C236.157 123.513 236.294 123.375 236.464 123.375C236.633 123.375 236.77 123.513 236.77 123.682C236.77 123.852 236.633 123.989 236.464 123.989Z" fill="black"/>
<path fill-rule="evenodd" clip-rule="evenodd" d="M230.846 123.989C230.677 123.989 230.54 123.852 230.54 123.682C230.54 123.513 230.677 123.375 230.846 123.375C231.016 123.375 231.153 123.513 231.153 123.682C231.153 123.852 231.016 123.989 230.846 123.989Z" fill="black"/>
<path fill-rule="evenodd" clip-rule="evenodd" d="M225.229 123.989C225.06 123.989 224.923 123.852 224.923 123.682C224.923 123.513 225.06 123.375 225.229 123.375C225.399 123.375 225.536 123.513 225.536 123.682C225.536 123.852 225.399 123.989 225.229 123.989Z" fill="black"/>
<path fill-rule="evenodd" clip-rule="evenodd" d="M219.612 123.989C219.443 123.989 219.305 123.852 219.305 123.682C219.305 123.513 219.443 123.375 219.612 123.375C219.782 123.375 219.919 123.513 219.919 123.682C219.919 123.852 219.782 123.989 219.612 123.989Z" fill="black"/>
<path fill-rule="evenodd" clip-rule="evenodd" d="M269.608 129.401C269.439 129.401 269.302 129.264 269.302 129.095C269.302 128.925 269.439 128.788 269.608 128.788C269.778 128.788 269.915 128.925 269.915 129.095C269.915 129.264 269.778 129.401 269.608 129.401Z" fill="black"/>
<path fill-rule="evenodd" clip-rule="evenodd" d="M264.177 129.401C264.008 129.401 263.871 129.264 263.871 129.095C263.871 128.925 264.008 128.788 264.177 128.788C264.347 128.788 264.484 128.925 264.484 129.095C264.484 129.264 264.347 129.401 264.177 129.401Z" fill="black"/>
<path fill-rule="evenodd" clip-rule="evenodd" d="M258.746 129.401C258.577 129.401 258.439 129.264 258.439 129.095C258.439 128.925 258.577 128.788 258.746 128.788C258.915 128.788 259.053 128.925 259.053 129.095C259.053 129.264 258.915 129.401 258.746 129.401Z" fill="black"/>
<path fill-rule="evenodd" clip-rule="evenodd" d="M253.129 129.401C252.959 129.401 252.822 129.264 252.822 129.095C252.822 128.925 252.959 128.788 253.129 128.788C253.298 128.788 253.435 128.925 253.435 129.095C253.435 129.264 253.298 129.401 253.129 129.401Z" fill="black"/>
<path fill-rule="evenodd" clip-rule="evenodd" d="M247.512 129.401C247.342 129.401 247.205 129.264 247.205 129.095C247.205 128.925 247.342 128.788 247.512 128.788C247.681 128.788 247.819 128.925 247.819 129.095C247.819 129.264 247.681 129.401 247.512 129.401Z" fill="black"/>
<path fill-rule="evenodd" clip-rule="evenodd" d="M241.895 129.401C241.725 129.401 241.588 129.264 241.588 129.095C241.588 128.925 241.725 128.788 241.895 128.788C242.064 128.788 242.201 128.925 242.201 129.095C242.201 129.264 242.064 129.401 241.895 129.401Z" fill="black"/>
<path fill-rule="evenodd" clip-rule="evenodd" d="M236.464 129.401C236.294 129.401 236.157 129.264 236.157 129.095C236.157 128.925 236.294 128.788 236.464 128.788C236.633 128.788 236.77 128.925 236.77 129.095C236.77 129.264 236.633 129.401 236.464 129.401Z" fill="black"/>
<path fill-rule="evenodd" clip-rule="evenodd" d="M230.846 129.401C230.677 129.401 230.54 129.264 230.54 129.095C230.54 128.925 230.677 128.788 230.846 128.788C231.016 128.788 231.153 128.925 231.153 129.095C231.153 129.264 231.016 129.401 230.846 129.401Z" fill="black"/>
<path fill-rule="evenodd" clip-rule="evenodd" d="M225.229 129.401C225.06 129.401 224.923 129.264 224.923 129.095C224.923 128.925 225.06 128.788 225.229 128.788C225.399 128.788 225.536 128.925 225.536 129.095C225.536 129.264 225.399 129.401 225.229 129.401Z" fill="black"/>
<path fill-rule="evenodd" clip-rule="evenodd" d="M219.612 129.401C219.443 129.401 219.305 129.264 219.305 129.095C219.305 128.925 219.443 128.788 219.612 128.788C219.782 128.788 219.919 128.925 219.919 129.095C219.919 129.264 219.782 129.401 219.612 129.401Z" fill="black"/>
<path fill-rule="evenodd" clip-rule="evenodd" d="M269.608 135C269.439 135 269.302 134.863 269.302 134.693C269.302 134.524 269.439 134.387 269.608 134.387C269.778 134.387 269.915 134.524 269.915 134.693C269.915 134.863 269.778 135 269.608 135Z" fill="black"/>
<path fill-rule="evenodd" clip-rule="evenodd" d="M264.177 135C264.008 135 263.871 134.863 263.871 134.693C263.871 134.524 264.008 134.387 264.177 134.387C264.347 134.387 264.484 134.524 264.484 134.693C264.484 134.863 264.347 135 264.177 135Z" fill="black"/>
<path fill-rule="evenodd" clip-rule="evenodd" d="M258.746 135C258.577 135 258.439 134.863 258.439 134.693C258.439 134.524 258.577 134.387 258.746 134.387C258.915 134.387 259.053 134.524 259.053 134.693C259.053 134.863 258.915 135 258.746 135Z" fill="black"/>
<path fill-rule="evenodd" clip-rule="evenodd" d="M253.129 135C252.959 135 252.822 134.863 252.822 134.693C252.822 134.524 252.959 134.387 253.129 134.387C253.298 134.387 253.435 134.524 253.435 134.693C253.435 134.863 253.298 135 253.129 135Z" fill="black"/>
<path fill-rule="evenodd" clip-rule="evenodd" d="M247.512 135C247.342 135 247.205 134.863 247.205 134.693C247.205 134.524 247.342 134.387 247.512 134.387C247.681 134.387 247.819 134.524 247.819 134.693C247.819 134.863 247.681 135 247.512 135Z" fill="black"/>
<path fill-rule="evenodd" clip-rule="evenodd" d="M241.895 135C241.725 135 241.588 134.863 241.588 134.693C241.588 134.524 241.725 134.387 241.895 134.387C242.064 134.387 242.201 134.524 242.201 134.693C242.201 134.863 242.064 135 241.895 135Z" fill="black"/>
<path fill-rule="evenodd" clip-rule="evenodd" d="M236.464 135C236.294 135 236.157 134.863 236.157 134.693C236.157 134.524 236.294 134.387 236.464 134.387C236.633 134.387 236.77 134.524 236.77 134.693C236.77 134.863 236.633 135 236.464 135Z" fill="black"/>
<path fill-rule="evenodd" clip-rule="evenodd" d="M230.846 135C230.677 135 230.54 134.863 230.54 134.693C230.54 134.524 230.677 134.387 230.846 134.387C231.016 134.387 231.153 134.524 231.153 134.693C231.153 134.863 231.016 135 230.846 135Z" fill="black"/>
<path fill-rule="evenodd" clip-rule="evenodd" d="M225.229 135C225.06 135 224.923 134.863 224.923 134.693C224.923 134.524 225.06 134.387 225.229 134.387C225.399 134.387 225.536 134.524 225.536 134.693C225.536 134.863 225.399 135 225.229 135Z" fill="black"/>
<path fill-rule="evenodd" clip-rule="evenodd" d="M219.612 135C219.443 135 219.305 134.863 219.305 134.693C219.305 134.524 219.443 134.387 219.612 134.387C219.782 134.387 219.919 134.524 219.919 134.693C219.919 134.863 219.782 135 219.612 135Z" fill="black"/>
</g>
<path opacity="0.5" d="M-4.48806 56.6175C-8.08511 49.9147 -9.70676 44.4255 -10.9157 40.2328C-22.7051 -0.6567 -4.65664 -38.8564 0.920677 -49.2662C8.13839 -62.7377 17.2221 -79.1882 31.137 -89.1082L67.542 -91.3886C69.5759 -91.516 71.6096 -91.1358 73.4601 -90.2821L99.0829 -78.4621L137.52 -86.2231C142.672 -87.2632 147.915 -84.9136 150.567 -80.3763L163.693 -57.9177C167.167 -53.651 184.69 -22.6306 177.453 17.6162C177.275 18.6007 177.121 19.3279 176.991 19.9664C175.723 26.1454 166.752 71.2549 131.85 93.4154C126.855 96.5873 122.389 99.0688 110.375 102.353C66.449 114.364 16.888 96.4523 -4.48806 56.6175Z" fill="white"/>
<path opacity="0.3" d="M184.851 54.1551C182.537 49.8419 181.493 46.3097 180.715 43.6118C173.129 17.3 184.743 -7.28093 188.332 -13.9795C192.976 -22.6482 198.822 -33.2339 207.776 -39.6172L231.202 -41.0847C232.51 -41.1666 233.819 -40.922 235.01 -40.3727L251.498 -32.7666L276.232 -37.7607C279.546 -38.43 282.92 -36.9181 284.627 -33.9984L293.074 -19.5466C295.309 -16.8011 306.584 3.16011 301.928 29.0584C301.813 29.6919 301.714 30.1598 301.631 30.5706C300.815 34.5467 295.042 63.574 272.583 77.834C269.369 79.8751 266.495 81.4719 258.764 83.5855C230.498 91.3138 198.607 79.7882 184.851 54.1551Z" fill="white"/>
<g opacity="0.45">
<path fill-rule="evenodd" clip-rule="evenodd" d="M50.3029 0.613334C50.1335 0.613334 49.9962 0.476034 49.9962 0.306667C49.9962 0.137299 50.1335 0 50.3029 0C50.4722 0 50.6095 0.137299 50.6095 0.306667C50.6095 0.476034 50.4722 0.613334 50.3029 0.613334Z" fill="black"/>
<path fill-rule="evenodd" clip-rule="evenodd" d="M44.8717 0.613334C44.7023 0.613334 44.565 0.476034 44.565 0.306667C44.565 0.137299 44.7023 0 44.8717 0C45.0411 0 45.1784 0.137299 45.1784 0.306667C45.1784 0.476034 45.0411 0.613334 44.8717 0.613334Z" fill="black"/>
<path fill-rule="evenodd" clip-rule="evenodd" d="M39.4404 0.613334C39.271 0.613334 39.1337 0.476034 39.1337 0.306667C39.1337 0.137299 39.271 0 39.4404 0C39.6098 0 39.7471 0.137299 39.7471 0.306667C39.7471 0.476034 39.6098 0.613334 39.4404 0.613334Z" fill="black"/>
<path fill-rule="evenodd" clip-rule="evenodd" d="M33.8233 0.613334C33.6539 0.613334 33.5166 0.476034 33.5166 0.306667C33.5166 0.137299 33.6539 0 33.8233 0C33.9927 0 34.13 0.137299 34.13 0.306667C34.13 0.476034 33.9927 0.613334 33.8233 0.613334Z" fill="black"/>
<path fill-rule="evenodd" clip-rule="evenodd" d="M28.2064 0.613334C28.037 0.613334 27.8997 0.476034 27.8997 0.306667C27.8997 0.137299 28.037 0 28.2064 0C28.3757 0 28.513 0.137299 28.513 0.306667C28.513 0.476034 28.3757 0.613334 28.2064 0.613334Z" fill="black"/>
<path fill-rule="evenodd" clip-rule="evenodd" d="M22.5892 0.613334C22.4199 0.613334 22.2826 0.476034 22.2826 0.306667C22.2826 0.137299 22.4199 0 22.5892 0C22.7586 0 22.8959 0.137299 22.8959 0.306667C22.8959 0.476034 22.7586 0.613334 22.5892 0.613334Z" fill="black"/>
<path fill-rule="evenodd" clip-rule="evenodd" d="M17.158 0.613334C16.9886 0.613334 16.8513 0.476034 16.8513 0.306667C16.8513 0.137299 16.9886 0 17.158 0C17.3274 0 17.4647 0.137299 17.4647 0.306667C17.4647 0.476034 17.3274 0.613334 17.158 0.613334Z" fill="black"/>
<path fill-rule="evenodd" clip-rule="evenodd" d="M11.5408 0.613334C11.3714 0.613334 11.2341 0.476034 11.2341 0.306667C11.2341 0.137299 11.3714 0 11.5408 0C11.7102 0 11.8475 0.137299 11.8475 0.306667C11.8475 0.476034 11.7102 0.613334 11.5408 0.613334Z" fill="black"/>
<path fill-rule="evenodd" clip-rule="evenodd" d="M5.92379 0.613334C5.75442 0.613334 5.61712 0.476034 5.61712 0.306667C5.61712 0.137299 5.75442 0 5.92379 0C6.09315 0 6.23045 0.137299 6.23045 0.306667C6.23045 0.476034 6.09315 0.613334 5.92379 0.613334Z" fill="black"/>
<path fill-rule="evenodd" clip-rule="evenodd" d="M0.30666 0.613334C0.137293 0.613334 -6.8848e-06 0.476034 -6.8848e-06 0.306667C-6.8848e-06 0.137299 0.137293 0 0.30666 0C0.476028 0 0.613327 0.137299 0.613327 0.306667C0.613327 0.476034 0.476028 0.613334 0.30666 0.613334Z" fill="black"/>
<path fill-rule="evenodd" clip-rule="evenodd" d="M50.3028 6.39776C50.1334 6.39776 49.9961 6.26046 49.9961 6.09109C49.9961 5.92172 50.1334 5.78442 50.3028 5.78442C50.4722 5.78442 50.6095 5.92172 50.6095 6.09109C50.6095 6.26046 50.4722 6.39776 50.3028 6.39776Z" fill="black"/>
<path fill-rule="evenodd" clip-rule="evenodd" d="M44.8717 6.39776C44.7023 6.39776 44.565 6.26046 44.565 6.09109C44.565 5.92172 44.7023 5.78442 44.8717 5.78442C45.0411 5.78442 45.1784 5.92172 45.1784 6.09109C45.1784 6.26046 45.0411 6.39776 44.8717 6.39776Z" fill="black"/>
<path fill-rule="evenodd" clip-rule="evenodd" d="M39.4404 6.39776C39.271 6.39776 39.1337 6.26046 39.1337 6.09109C39.1337 5.92172 39.271 5.78442 39.4404 5.78442C39.6098 5.78442 39.7471 5.92172 39.7471 6.09109C39.7471 6.26046 39.6098 6.39776 39.4404 6.39776Z" fill="black"/>
<path fill-rule="evenodd" clip-rule="evenodd" d="M33.8233 6.39776C33.6539 6.39776 33.5166 6.26046 33.5166 6.09109C33.5166 5.92172 33.6539 5.78442 33.8233 5.78442C33.9927 5.78442 34.13 5.92172 34.13 6.09109C34.13 6.26046 33.9927 6.39776 33.8233 6.39776Z" fill="black"/>
<path fill-rule="evenodd" clip-rule="evenodd" d="M28.2064 6.39776C28.037 6.39776 27.8997 6.26046 27.8997 6.09109C27.8997 5.92172 28.037 5.78442 28.2064 5.78442C28.3757 5.78442 28.513 5.92172 28.513 6.09109C28.513 6.26046 28.3757 6.39776 28.2064 6.39776Z" fill="black"/>
<path fill-rule="evenodd" clip-rule="evenodd" d="M22.5892 6.39776C22.4199 6.39776 22.2826 6.26046 22.2826 6.09109C22.2826 5.92172 22.4199 5.78442 22.5892 5.78442C22.7586 5.78442 22.8959 5.92172 22.8959 6.09109C22.8959 6.26046 22.7586 6.39776 22.5892 6.39776Z" fill="black"/>
<path fill-rule="evenodd" clip-rule="evenodd" d="M17.158 6.39776C16.9886 6.39776 16.8513 6.26046 16.8513 6.09109C16.8513 5.92172 16.9886 5.78442 17.158 5.78442C17.3274 5.78442 17.4647 5.92172 17.4647 6.09109C17.4647 6.26046 17.3274 6.39776 17.158 6.39776Z" fill="black"/>
<path fill-rule="evenodd" clip-rule="evenodd" d="M11.5408 6.39776C11.3714 6.39776 11.2341 6.26046 11.2341 6.09109C11.2341 5.92172 11.3714 5.78442 11.5408 5.78442C11.7102 5.78442 11.8475 5.92172 11.8475 6.09109C11.8475 6.26046 11.7102 6.39776 11.5408 6.39776Z" fill="black"/>
<path fill-rule="evenodd" clip-rule="evenodd" d="M5.92379 6.39776C5.75442 6.39776 5.61712 6.26046 5.61712 6.09109C5.61712 5.92172 5.75442 5.78442 5.92379 5.78442C6.09315 5.78442 6.23045 5.92172 6.23045 6.09109C6.23045 6.26046 6.09315 6.39776 5.92379 6.39776Z" fill="black"/>
<path fill-rule="evenodd" clip-rule="evenodd" d="M0.30666 6.39776C0.137293 6.39776 -6.8848e-06 6.26046 -6.8848e-06 6.09109C-6.8848e-06 5.92172 0.137293 5.78442 0.30666 5.78442C0.476028 5.78442 0.613327 5.92172 0.613327 6.09109C0.613327 6.26046 0.476028 6.39776 0.30666 6.39776Z" fill="black"/>
<path fill-rule="evenodd" clip-rule="evenodd" d="M50.3028 11.9961C50.1334 11.9961 49.9961 11.8588 49.9961 11.6895C49.9961 11.5201 50.1334 11.3828 50.3028 11.3828C50.4722 11.3828 50.6095 11.5201 50.6095 11.6895C50.6095 11.8588 50.4722 11.9961 50.3028 11.9961Z" fill="black"/>
<path fill-rule="evenodd" clip-rule="evenodd" d="M44.8717 11.9961C44.7023 11.9961 44.565 11.8588 44.565 11.6895C44.565 11.5201 44.7023 11.3828 44.8717 11.3828C45.0411 11.3828 45.1784 11.5201 45.1784 11.6895C45.1784 11.8588 45.0411 11.9961 44.8717 11.9961Z" fill="black"/>
<path fill-rule="evenodd" clip-rule="evenodd" d="M39.4404 11.9961C39.271 11.9961 39.1337 11.8588 39.1337 11.6895C39.1337 11.5201 39.271 11.3828 39.4404 11.3828C39.6098 11.3828 39.7471 11.5201 39.7471 11.6895C39.7471 11.8588 39.6098 11.9961 39.4404 11.9961Z" fill="black"/>
<path fill-rule="evenodd" clip-rule="evenodd" d="M33.8233 11.9961C33.6539 11.9961 33.5166 11.8588 33.5166 11.6895C33.5166 11.5201 33.6539 11.3828 33.8233 11.3828C33.9927 11.3828 34.13 11.5201 34.13 11.6895C34.13 11.8588 33.9927 11.9961 33.8233 11.9961Z" fill="black"/>
<path fill-rule="evenodd" clip-rule="evenodd" d="M28.2064 11.9961C28.037 11.9961 27.8997 11.8588 27.8997 11.6895C27.8997 11.5201 28.037 11.3828 28.2064 11.3828C28.3757 11.3828 28.513 11.5201 28.513 11.6895C28.513 11.8588 28.3757 11.9961 28.2064 11.9961Z" fill="black"/>
<path fill-rule="evenodd" clip-rule="evenodd" d="M22.5892 11.9961C22.4199 11.9961 22.2826 11.8588 22.2826 11.6895C22.2826 11.5201 22.4199 11.3828 22.5892 11.3828C22.7586 11.3828 22.8959 11.5201 22.8959 11.6895C22.8959 11.8588 22.7586 11.9961 22.5892 11.9961Z" fill="black"/>
<path fill-rule="evenodd" clip-rule="evenodd" d="M17.158 11.9961C16.9886 11.9961 16.8513 11.8588 16.8513 11.6895C16.8513 11.5201 16.9886 11.3828 17.158 11.3828C17.3274 11.3828 17.4647 11.5201 17.4647 11.6895C17.4647 11.8588 17.3274 11.9961 17.158 11.9961Z" fill="black"/>
<path fill-rule="evenodd" clip-rule="evenodd" d="M11.5408 11.9961C11.3714 11.9961 11.2341 11.8588 11.2341 11.6895C11.2341 11.5201 11.3714 11.3828 11.5408 11.3828C11.7102 11.3828 11.8475 11.5201 11.8475 11.6895C11.8475 11.8588 11.7102 11.9961 11.5408 11.9961Z" fill="black"/>
<path fill-rule="evenodd" clip-rule="evenodd" d="M5.92379 11.9961C5.75442 11.9961 5.61712 11.8588 5.61712 11.6895C5.61712 11.5201 5.75442 11.3828 5.92379 11.3828C6.09315 11.3828 6.23045 11.5201 6.23045 11.6895C6.23045 11.8588 6.09315 11.9961 5.92379 11.9961Z" fill="black"/>
<path fill-rule="evenodd" clip-rule="evenodd" d="M0.30666 11.9961C0.137293 11.9961 -6.8848e-06 11.8588 -6.8848e-06 11.6895C-6.8848e-06 11.5201 0.137293 11.3828 0.30666 11.3828C0.476028 11.3828 0.613327 11.5201 0.613327 11.6895C0.613327 11.8588 0.476028 11.9961 0.30666 11.9961Z" fill="black"/>
<path fill-rule="evenodd" clip-rule="evenodd" d="M50.3028 17.7807C50.1334 17.7807 49.9961 17.6434 49.9961 17.474C49.9961 17.3047 50.1334 17.1674 50.3028 17.1674C50.4722 17.1674 50.6095 17.3047 50.6095 17.474C50.6095 17.6434 50.4722 17.7807 50.3028 17.7807Z" fill="black"/>
<path fill-rule="evenodd" clip-rule="evenodd" d="M44.8717 17.7807C44.7023 17.7807 44.565 17.6434 44.565 17.474C44.565 17.3047 44.7023 17.1674 44.8717 17.1674C45.0411 17.1674 45.1784 17.3047 45.1784 17.474C45.1784 17.6434 45.0411 17.7807 44.8717 17.7807Z" fill="black"/>
<path fill-rule="evenodd" clip-rule="evenodd" d="M39.4404 17.7807C39.271 17.7807 39.1337 17.6434 39.1337 17.474C39.1337 17.3047 39.271 17.1674 39.4404 17.1674C39.6098 17.1674 39.7471 17.3047 39.7471 17.474C39.7471 17.6434 39.6098 17.7807 39.4404 17.7807Z" fill="black"/>
<path fill-rule="evenodd" clip-rule="evenodd" d="M33.8233 17.7807C33.6539 17.7807 33.5166 17.6434 33.5166 17.474C33.5166 17.3047 33.6539 17.1674 33.8233 17.1674C33.9927 17.1674 34.13 17.3047 34.13 17.474C34.13 17.6434 33.9927 17.7807 33.8233 17.7807Z" fill="black"/>
<path fill-rule="evenodd" clip-rule="evenodd" d="M28.2064 17.7807C28.037 17.7807 27.8997 17.6434 27.8997 17.474C27.8997 17.3047 28.037 17.1674 28.2064 17.1674C28.3757 17.1674 28.513 17.3047 28.513 17.474C28.513 17.6434 28.3757 17.7807 28.2064 17.7807Z" fill="black"/>
<path fill-rule="evenodd" clip-rule="evenodd" d="M22.5892 17.7807C22.4199 17.7807 22.2826 17.6434 22.2826 17.474C22.2826 17.3047 22.4199 17.1674 22.5892 17.1674C22.7586 17.1674 22.8959 17.3047 22.8959 17.474C22.8959 17.6434 22.7586 17.7807 22.5892 17.7807Z" fill="black"/>
<path fill-rule="evenodd" clip-rule="evenodd" d="M17.158 17.7807C16.9886 17.7807 16.8513 17.6434 16.8513 17.474C16.8513 17.3047 16.9886 17.1674 17.158 17.1674C17.3274 17.1674 17.4647 17.3047 17.4647 17.474C17.4647 17.6434 17.3274 17.7807 17.158 17.7807Z" fill="black"/>
<path fill-rule="evenodd" clip-rule="evenodd" d="M11.5408 17.7807C11.3714 17.7807 11.2341 17.6434 11.2341 17.474C11.2341 17.3047 11.3714 17.1674 11.5408 17.1674C11.7102 17.1674 11.8475 17.3047 11.8475 17.474C11.8475 17.6434 11.7102 17.7807 11.5408 17.7807Z" fill="black"/>
<path fill-rule="evenodd" clip-rule="evenodd" d="M5.92379 17.7807C5.75442 17.7807 5.61712 17.6434 5.61712 17.474C5.61712 17.3047 5.75442 17.1674 5.92379 17.1674C6.09315 17.1674 6.23045 17.3047 6.23045 17.474C6.23045 17.6434 6.09315 17.7807 5.92379 17.7807Z" fill="black"/>
<path fill-rule="evenodd" clip-rule="evenodd" d="M0.30666 17.7807C0.137293 17.7807 -6.8848e-06 17.6434 -6.8848e-06 17.474C-6.8848e-06 17.3047 0.137293 17.1674 0.30666 17.1674C0.476028 17.1674 0.613327 17.3047 0.613327 17.474C0.613327 17.6434 0.476028 17.7807 0.30666 17.7807Z" fill="black"/>
<path fill-rule="evenodd" clip-rule="evenodd" d="M50.3028 23.1933C50.1334 23.1933 49.9961 23.056 49.9961 22.8866C49.9961 22.7173 50.1334 22.58 50.3028 22.58C50.4722 22.58 50.6095 22.7173 50.6095 22.8866C50.6095 23.056 50.4722 23.1933 50.3028 23.1933Z" fill="black"/>
<path fill-rule="evenodd" clip-rule="evenodd" d="M44.8717 23.1933C44.7023 23.1933 44.565 23.056 44.565 22.8866C44.565 22.7173 44.7023 22.58 44.8717 22.58C45.0411 22.58 45.1784 22.7173 45.1784 22.8866C45.1784 23.056 45.0411 23.1933 44.8717 23.1933Z" fill="black"/>
<path fill-rule="evenodd" clip-rule="evenodd" d="M39.4404 23.1933C39.271 23.1933 39.1337 23.056 39.1337 22.8866C39.1337 22.7173 39.271 22.58 39.4404 22.58C39.6098 22.58 39.7471 22.7173 39.7471 22.8866C39.7471 23.056 39.6098 23.1933 39.4404 23.1933Z" fill="black"/>
<path fill-rule="evenodd" clip-rule="evenodd" d="M33.8233 23.1933C33.6539 23.1933 33.5166 23.056 33.5166 22.8866C33.5166 22.7173 33.6539 22.58 33.8233 22.58C33.9927 22.58 34.13 22.7173 34.13 22.8866C34.13 23.056 33.9927 23.1933 33.8233 23.1933Z" fill="black"/>
<path fill-rule="evenodd" clip-rule="evenodd" d="M28.2064 23.1933C28.037 23.1933 27.8997 23.056 27.8997 22.8866C27.8997 22.7173 28.037 22.58 28.2064 22.58C28.3757 22.58 28.513 22.7173 28.513 22.8866C28.513 23.056 28.3757 23.1933 28.2064 23.1933Z" fill="black"/>
<path fill-rule="evenodd" clip-rule="evenodd" d="M22.5892 23.1933C22.4199 23.1933 22.2826 23.056 22.2826 22.8866C22.2826 22.7173 22.4199 22.58 22.5892 22.58C22.7586 22.58 22.8959 22.7173 22.8959 22.8866C22.8959 23.056 22.7586 23.1933 22.5892 23.1933Z" fill="black"/>
<path fill-rule="evenodd" clip-rule="evenodd" d="M17.158 23.1933C16.9886 23.1933 16.8513 23.056 16.8513 22.8866C16.8513 22.7173 16.9886 22.58 17.158 22.58C17.3274 22.58 17.4647 22.7173 17.4647 22.8866C17.4647 23.056 17.3274 23.1933 17.158 23.1933Z" fill="black"/>
<path fill-rule="evenodd" clip-rule="evenodd" d="M11.5408 23.1933C11.3714 23.1933 11.2341 23.056 11.2341 22.8866C11.2341 22.7173 11.3714 22.58 11.5408 22.58C11.7102 22.58 11.8475 22.7173 11.8475 22.8866C11.8475 23.056 11.7102 23.1933 11.5408 23.1933Z" fill="black"/>
<path fill-rule="evenodd" clip-rule="evenodd" d="M5.92379 23.1933C5.75442 23.1933 5.61712 23.056 5.61712 22.8866C5.61712 22.7173 5.75442 22.58 5.92379 22.58C6.09315 22.58 6.23045 22.7173 6.23045 22.8866C6.23045 23.056 6.09315 23.1933 5.92379 23.1933Z" fill="black"/>
<path fill-rule="evenodd" clip-rule="evenodd" d="M0.30666 23.1933C0.137293 23.1933 -6.8848e-06 23.056 -6.8848e-06 22.8866C-6.8848e-06 22.7173 0.137293 22.58 0.30666 22.58C0.476028 22.58 0.613327 22.7173 0.613327 22.8866C0.613327 23.056 0.476028 23.1933 0.30666 23.1933Z" fill="black"/>
<path fill-rule="evenodd" clip-rule="evenodd" d="M50.3028 28.7918C50.1334 28.7918 49.9961 28.6545 49.9961 28.4851C49.9961 28.3158 50.1334 28.1785 50.3028 28.1785C50.4722 28.1785 50.6095 28.3158 50.6095 28.4851C50.6095 28.6545 50.4722 28.7918 50.3028 28.7918Z" fill="black"/>
<path fill-rule="evenodd" clip-rule="evenodd" d="M44.8717 28.7918C44.7023 28.7918 44.565 28.6545 44.565 28.4851C44.565 28.3158 44.7023 28.1785 44.8717 28.1785C45.0411 28.1785 45.1784 28.3158 45.1784 28.4851C45.1784 28.6545 45.0411 28.7918 44.8717 28.7918Z" fill="black"/>
<path fill-rule="evenodd" clip-rule="evenodd" d="M39.4404 28.7918C39.271 28.7918 39.1337 28.6545 39.1337 28.4851C39.1337 28.3158 39.271 28.1785 39.4404 28.1785C39.6098 28.1785 39.7471 28.3158 39.7471 28.4851C39.7471 28.6545 39.6098 28.7918 39.4404 28.7918Z" fill="black"/>
<path fill-rule="evenodd" clip-rule="evenodd" d="M33.8233 28.7918C33.6539 28.7918 33.5166 28.6545 33.5166 28.4851C33.5166 28.3158 33.6539 28.1785 33.8233 28.1785C33.9927 28.1785 34.13 28.3158 34.13 28.4851C34.13 28.6545 33.9927 28.7918 33.8233 28.7918Z" fill="black"/>
<path fill-rule="evenodd" clip-rule="evenodd" d="M28.2064 28.7918C28.037 28.7918 27.8997 28.6545 27.8997 28.4851C27.8997 28.3158 28.037 28.1785 28.2064 28.1785C28.3757 28.1785 28.513 28.3158 28.513 28.4851C28.513 28.6545 28.3757 28.7918 28.2064 28.7918Z" fill="black"/>
<path fill-rule="evenodd" clip-rule="evenodd" d="M22.5892 28.7918C22.4199 28.7918 22.2826 28.6545 22.2826 28.4851C22.2826 28.3158 22.4199 28.1785 22.5892 28.1785C22.7586 28.1785 22.8959 28.3158 22.8959 28.4851C22.8959 28.6545 22.7586 28.7918 22.5892 28.7918Z" fill="black"/>
<path fill-rule="evenodd" clip-rule="evenodd" d="M17.158 28.7918C16.9886 28.7918 16.8513 28.6545 16.8513 28.4851C16.8513 28.3158 16.9886 28.1785 17.158 28.1785C17.3274 28.1785 17.4647 28.3158 17.4647 28.4851C17.4647 28.6545 17.3274 28.7918 17.158 28.7918Z" fill="black"/>
<path fill-rule="evenodd" clip-rule="evenodd" d="M11.5408 28.7918C11.3714 28.7918 11.2341 28.6545 11.2341 28.4851C11.2341 28.3158 11.3714 28.1785 11.5408 28.1785C11.7102 28.1785 11.8475 28.3158 11.8475 28.4851C11.8475 28.6545 11.7102 28.7918 11.5408 28.7918Z" fill="black"/>
<path fill-rule="evenodd" clip-rule="evenodd" d="M5.92379 28.7918C5.75442 28.7918 5.61712 28.6545 5.61712 28.4851C5.61712 28.3158 5.75442 28.1785 5.92379 28.1785C6.09315 28.1785 6.23045 28.3158 6.23045 28.4851C6.23045 28.6545 6.09315 28.7918 5.92379 28.7918Z" fill="black"/>
<path fill-rule="evenodd" clip-rule="evenodd" d="M0.30666 28.7918C0.137293 28.7918 -6.8848e-06 28.6545 -6.8848e-06 28.4851C-6.8848e-06 28.3158 0.137293 28.1785 0.30666 28.1785C0.476028 28.1785 0.613327 28.3158 0.613327 28.4851C0.613327 28.6545 0.476028 28.7918 0.30666 28.7918Z" fill="black"/>
<path fill-rule="evenodd" clip-rule="evenodd" d="M50.3028 34.3903C50.1334 34.3903 49.9961 34.253 49.9961 34.0836C49.9961 33.9143 50.1334 33.777 50.3028 33.777C50.4722 33.777 50.6095 33.9143 50.6095 34.0836C50.6095 34.253 50.4722 34.3903 50.3028 34.3903Z" fill="black"/>
<path fill-rule="evenodd" clip-rule="evenodd" d="M44.8717 34.3903C44.7023 34.3903 44.565 34.253 44.565 34.0836C44.565 33.9143 44.7023 33.777 44.8717 33.777C45.0411 33.777 45.1784 33.9143 45.1784 34.0836C45.1784 34.253 45.0411 34.3903 44.8717 34.3903Z" fill="black"/>
<path fill-rule="evenodd" clip-rule="evenodd" d="M39.4404 34.3903C39.271 34.3903 39.1337 34.253 39.1337 34.0836C39.1337 33.9143 39.271 33.777 39.4404 33.777C39.6098 33.777 39.7471 33.9143 39.7471 34.0836C39.7471 34.253 39.6098 34.3903 39.4404 34.3903Z" fill="black"/>
<path fill-rule="evenodd" clip-rule="evenodd" d="M33.8233 34.3903C33.6539 34.3903 33.5166 34.253 33.5166 34.0836C33.5166 33.9143 33.6539 33.777 33.8233 33.777C33.9927 33.777 34.13 33.9143 34.13 34.0836C34.13 34.253 33.9927 34.3903 33.8233 34.3903Z" fill="black"/>
<path fill-rule="evenodd" clip-rule="evenodd" d="M28.2064 34.3903C28.037 34.3903 27.8997 34.253 27.8997 34.0836C27.8997 33.9143 28.037 33.777 28.2064 33.777C28.3757 33.777 28.513 33.9143 28.513 34.0836C28.513 34.253 28.3757 34.3903 28.2064 34.3903Z" fill="black"/>
<path fill-rule="evenodd" clip-rule="evenodd" d="M22.5892 34.3903C22.4199 34.3903 22.2826 34.253 22.2826 34.0836C22.2826 33.9143 22.4199 33.777 22.5892 33.777C22.7586 33.777 22.8959 33.9143 22.8959 34.0836C22.8959 34.253 22.7586 34.3903 22.5892 34.3903Z" fill="black"/>
<path fill-rule="evenodd" clip-rule="evenodd" d="M17.158 34.3903C16.9886 34.3903 16.8513 34.253 16.8513 34.0836C16.8513 33.9143 16.9886 33.777 17.158 33.777C17.3274 33.777 17.4647 33.9143 17.4647 34.0836C17.4647 34.253 17.3274 34.3903 17.158 34.3903Z" fill="black"/>
<path fill-rule="evenodd" clip-rule="evenodd" d="M11.5408 34.3903C11.3714 34.3903 11.2341 34.253 11.2341 34.0836C11.2341 33.9143 11.3714 33.777 11.5408 33.777C11.7102 33.777 11.8475 33.9143 11.8475 34.0836C11.8475 34.253 11.7102 34.3903 11.5408 34.3903Z" fill="black"/>
<path fill-rule="evenodd" clip-rule="evenodd" d="M5.92379 34.3903C5.75442 34.3903 5.61712 34.253 5.61712 34.0836C5.61712 33.9143 5.75442 33.777 5.92379 33.777C6.09315 33.777 6.23045 33.9143 6.23045 34.0836C6.23045 34.253 6.09315 34.3903 5.92379 34.3903Z" fill="black"/>
<path fill-rule="evenodd" clip-rule="evenodd" d="M0.30666 34.3903C0.137293 34.3903 -6.8848e-06 34.253 -6.8848e-06 34.0836C-6.8848e-06 33.9143 0.137293 33.777 0.30666 33.777C0.476028 33.777 0.613327 33.9143 0.613327 34.0836C0.613327 34.253 0.476028 34.3903 0.30666 34.3903Z" fill="black"/>
<path fill-rule="evenodd" clip-rule="evenodd" d="M50.3028 39.9888C50.1334 39.9888 49.9961 39.8515 49.9961 39.6822C49.9961 39.5128 50.1334 39.3755 50.3028 39.3755C50.4722 39.3755 50.6095 39.5128 50.6095 39.6822C50.6095 39.8515 50.4722 39.9888 50.3028 39.9888Z" fill="black"/>
<path fill-rule="evenodd" clip-rule="evenodd" d="M44.8717 39.9888C44.7023 39.9888 44.565 39.8515 44.565 39.6822C44.565 39.5128 44.7023 39.3755 44.8717 39.3755C45.0411 39.3755 45.1784 39.5128 45.1784 39.6822C45.1784 39.8515 45.0411 39.9888 44.8717 39.9888Z" fill="black"/>
<path fill-rule="evenodd" clip-rule="evenodd" d="M39.4404 39.9888C39.271 39.9888 39.1337 39.8515 39.1337 39.6822C39.1337 39.5128 39.271 39.3755 39.4404 39.3755C39.6098 39.3755 39.7471 39.5128 39.7471 39.6822C39.7471 39.8515 39.6098 39.9888 39.4404 39.9888Z" fill="black"/>
<path fill-rule="evenodd" clip-rule="evenodd" d="M33.8233 39.9888C33.6539 39.9888 33.5166 39.8515 33.5166 39.6822C33.5166 39.5128 33.6539 39.3755 33.8233 39.3755C33.9927 39.3755 34.13 39.5128 34.13 39.6822C34.13 39.8515 33.9927 39.9888 33.8233 39.9888Z" fill="black"/>
<path fill-rule="evenodd" clip-rule="evenodd" d="M28.2064 39.9888C28.037 39.9888 27.8997 39.8515 27.8997 39.6822C27.8997 39.5128 28.037 39.3755 28.2064 39.3755C28.3757 39.3755 28.513 39.5128 28.513 39.6822C28.513 39.8515 28.3757 39.9888 28.2064 39.9888Z" fill="black"/>
<path fill-rule="evenodd" clip-rule="evenodd" d="M22.5892 39.9888C22.4199 39.9888 22.2826 39.8515 22.2826 39.6822C22.2826 39.5128 22.4199 39.3755 22.5892 39.3755C22.7586 39.3755 22.8959 39.5128 22.8959 39.6822C22.8959 39.8515 22.7586 39.9888 22.5892 39.9888Z" fill="black"/>
<path fill-rule="evenodd" clip-rule="evenodd" d="M17.158 39.9888C16.9886 39.9888 16.8513 39.8515 16.8513 39.6822C16.8513 39.5128 16.9886 39.3755 17.158 39.3755C17.3274 39.3755 17.4647 39.5128 17.4647 39.6822C17.4647 39.8515 17.3274 39.9888 17.158 39.9888Z" fill="black"/>
<path fill-rule="evenodd" clip-rule="evenodd" d="M11.5408 39.9888C11.3714 39.9888 11.2341 39.8515 11.2341 39.6822C11.2341 39.5128 11.3714 39.3755 11.5408 39.3755C11.7102 39.3755 11.8475 39.5128 11.8475 39.6822C11.8475 39.8515 11.7102 39.9888 11.5408 39.9888Z" fill="black"/>
<path fill-rule="evenodd" clip-rule="evenodd" d="M5.92379 39.9888C5.75442 39.9888 5.61712 39.8515 5.61712 39.6822C5.61712 39.5128 5.75442 39.3755 5.92379 39.3755C6.09315 39.3755 6.23045 39.5128 6.23045 39.6822C6.23045 39.8515 6.09315 39.9888 5.92379 39.9888Z" fill="black"/>
<path fill-rule="evenodd" clip-rule="evenodd" d="M0.30666 39.9888C0.137293 39.9888 -6.8848e-06 39.8515 -6.8848e-06 39.6822C-6.8848e-06 39.5128 0.137293 39.3755 0.30666 39.3755C0.476028 39.3755 0.613327 39.5128 0.613327 39.6822C0.613327 39.8515 0.476028 39.9888 0.30666 39.9888Z" fill="black"/>
<path fill-rule="evenodd" clip-rule="evenodd" d="M50.3028 45.4014C50.1334 45.4014 49.9961 45.2641 49.9961 45.0948C49.9961 44.9254 50.1334 44.7881 50.3028 44.7881C50.4722 44.7881 50.6095 44.9254 50.6095 45.0948C50.6095 45.2641 50.4722 45.4014 50.3028 45.4014Z" fill="black"/>
<path fill-rule="evenodd" clip-rule="evenodd" d="M44.8717 45.4014C44.7023 45.4014 44.565 45.2641 44.565 45.0948C44.565 44.9254 44.7023 44.7881 44.8717 44.7881C45.0411 44.7881 45.1784 44.9254 45.1784 45.0948C45.1784 45.2641 45.0411 45.4014 44.8717 45.4014Z" fill="black"/>
<path fill-rule="evenodd" clip-rule="evenodd" d="M39.4404 45.4014C39.271 45.4014 39.1337 45.2641 39.1337 45.0948C39.1337 44.9254 39.271 44.7881 39.4404 44.7881C39.6098 44.7881 39.7471 44.9254 39.7471 45.0948C39.7471 45.2641 39.6098 45.4014 39.4404 45.4014Z" fill="black"/>
<path fill-rule="evenodd" clip-rule="evenodd" d="M33.8233 45.4014C33.6539 45.4014 33.5166 45.2641 33.5166 45.0948C33.5166 44.9254 33.6539 44.7881 33.8233 44.7881C33.9927 44.7881 34.13 44.9254 34.13 45.0948C34.13 45.2641 33.9927 45.4014 33.8233 45.4014Z" fill="black"/>
<path fill-rule="evenodd" clip-rule="evenodd" d="M28.2064 45.4014C28.037 45.4014 27.8997 45.2641 27.8997 45.0948C27.8997 44.9254 28.037 44.7881 28.2064 44.7881C28.3757 44.7881 28.513 44.9254 28.513 45.0948C28.513 45.2641 28.3757 45.4014 28.2064 45.4014Z" fill="black"/>
<path fill-rule="evenodd" clip-rule="evenodd" d="M22.5892 45.4014C22.4199 45.4014 22.2826 45.2641 22.2826 45.0948C22.2826 44.9254 22.4199 44.7881 22.5892 44.7881C22.7586 44.7881 22.8959 44.9254 22.8959 45.0948C22.8959 45.2641 22.7586 45.4014 22.5892 45.4014Z" fill="black"/>
<path fill-rule="evenodd" clip-rule="evenodd" d="M17.158 45.4014C16.9886 45.4014 16.8513 45.2641 16.8513 45.0948C16.8513 44.9254 16.9886 44.7881 17.158 44.7881C17.3274 44.7881 17.4647 44.9254 17.4647 45.0948C17.4647 45.2641 17.3274 45.4014 17.158 45.4014Z" fill="black"/>
<path fill-rule="evenodd" clip-rule="evenodd" d="M11.5408 45.4014C11.3714 45.4014 11.2341 45.2641 11.2341 45.0948C11.2341 44.9254 11.3714 44.7881 11.5408 44.7881C11.7102 44.7881 11.8475 44.9254 11.8475 45.0948C11.8475 45.2641 11.7102 45.4014 11.5408 45.4014Z" fill="black"/>
<path fill-rule="evenodd" clip-rule="evenodd" d="M5.92379 45.4014C5.75442 45.4014 5.61712 45.2641 5.61712 45.0948C5.61712 44.9254 5.75442 44.7881 5.92379 44.7881C6.09315 44.7881 6.23045 44.9254 6.23045 45.0948C6.23045 45.2641 6.09315 45.4014 5.92379 45.4014Z" fill="black"/>
<path fill-rule="evenodd" clip-rule="evenodd" d="M0.30666 45.4014C0.137293 45.4014 -6.8848e-06 45.2641 -6.8848e-06 45.0948C-6.8848e-06 44.9254 0.137293 44.7881 0.30666 44.7881C0.476028 44.7881 0.613327 44.9254 0.613327 45.0948C0.613327 45.2641 0.476028 45.4014 0.30666 45.4014Z" fill="black"/>
<path fill-rule="evenodd" clip-rule="evenodd" d="M50.3028 51.0001C50.1334 51.0001 49.9961 50.8628 49.9961 50.6934C49.9961 50.524 50.1334 50.3867 50.3028 50.3867C50.4722 50.3867 50.6095 50.524 50.6095 50.6934C50.6095 50.8628 50.4722 51.0001 50.3028 51.0001Z" fill="black"/>
<path fill-rule="evenodd" clip-rule="evenodd" d="M44.8717 51.0001C44.7023 51.0001 44.565 50.8628 44.565 50.6934C44.565 50.524 44.7023 50.3867 44.8717 50.3867C45.0411 50.3867 45.1784 50.524 45.1784 50.6934C45.1784 50.8628 45.0411 51.0001 44.8717 51.0001Z" fill="black"/>
<path fill-rule="evenodd" clip-rule="evenodd" d="M39.4404 51.0001C39.271 51.0001 39.1337 50.8628 39.1337 50.6934C39.1337 50.524 39.271 50.3867 39.4404 50.3867C39.6098 50.3867 39.7471 50.524 39.7471 50.6934C39.7471 50.8628 39.6098 51.0001 39.4404 51.0001Z" fill="black"/>
<path fill-rule="evenodd" clip-rule="evenodd" d="M33.8233 51.0001C33.6539 51.0001 33.5166 50.8628 33.5166 50.6934C33.5166 50.524 33.6539 50.3867 33.8233 50.3867C33.9927 50.3867 34.13 50.524 34.13 50.6934C34.13 50.8628 33.9927 51.0001 33.8233 51.0001Z" fill="black"/>
<path fill-rule="evenodd" clip-rule="evenodd" d="M28.2064 51.0001C28.037 51.0001 27.8997 50.8628 27.8997 50.6934C27.8997 50.524 28.037 50.3867 28.2064 50.3867C28.3757 50.3867 28.513 50.524 28.513 50.6934C28.513 50.8628 28.3757 51.0001 28.2064 51.0001Z" fill="black"/>
<path fill-rule="evenodd" clip-rule="evenodd" d="M22.5892 51.0001C22.4199 51.0001 22.2826 50.8628 22.2826 50.6934C22.2826 50.524 22.4199 50.3867 22.5892 50.3867C22.7586 50.3867 22.8959 50.524 22.8959 50.6934C22.8959 50.8628 22.7586 51.0001 22.5892 51.0001Z" fill="black"/>
<path fill-rule="evenodd" clip-rule="evenodd" d="M17.158 51.0001C16.9886 51.0001 16.8513 50.8628 16.8513 50.6934C16.8513 50.524 16.9886 50.3867 17.158 50.3867C17.3274 50.3867 17.4647 50.524 17.4647 50.6934C17.4647 50.8628 17.3274 51.0001 17.158 51.0001Z" fill="black"/>
<path fill-rule="evenodd" clip-rule="evenodd" d="M11.5408 51.0001C11.3714 51.0001 11.2341 50.8628 11.2341 50.6934C11.2341 50.524 11.3714 50.3867 11.5408 50.3867C11.7102 50.3867 11.8475 50.524 11.8475 50.6934C11.8475 50.8628 11.7102 51.0001 11.5408 51.0001Z" fill="black"/>
<path fill-rule="evenodd" clip-rule="evenodd" d="M5.92379 51.0001C5.75442 51.0001 5.61712 50.8628 5.61712 50.6934C5.61712 50.524 5.75442 50.3867 5.92379 50.3867C6.09315 50.3867 6.23045 50.524 6.23045 50.6934C6.23045 50.8628 6.09315 51.0001 5.92379 51.0001Z" fill="black"/>
<path fill-rule="evenodd" clip-rule="evenodd" d="M0.30666 51.0001C0.137293 51.0001 -6.8848e-06 50.8628 -6.8848e-06 50.6934C-6.8848e-06 50.524 0.137293 50.3867 0.30666 50.3867C0.476028 50.3867 0.613327 50.524 0.613327 50.6934C0.613327 50.8628 0.476028 51.0001 0.30666 51.0001Z" fill="black"/>
</g>
<ellipse opacity="0.2" rx="123" ry="4.5" transform="matrix(-1 0 0 1 135 125.5)" fill="white"/>
<ellipse opacity="0.1" cx="205.692" cy="120.929" rx="53.6922" ry="6.39193" fill="#2C7BE5"/>
<path d="M67.5827 112.988H174.403C178.686 112.988 182.158 109.516 182.158 105.233V35.6872C182.158 31.5718 178.943 28.1733 174.834 27.9441L63.9207 21.8026C59.3077 21.5452 55.4945 25.3535 55.7457 29.9671L59.8391 105.654C60.0633 109.767 63.4636 112.988 67.5827 112.988Z" fill="#F9FBFD"/>
<circle r="2.63688" transform="matrix(-1 0 0 1 170.251 37.9875)" fill="#98C4FF"/>
<circle r="2.63688" transform="matrix(-1 0 0 1 160.314 37.9875)" fill="#98C4FF"/>
<circle r="2.63688" transform="matrix(-1 0 0 1 150.377 37.9875)" fill="#98C4FF"/>
<path d="M163.846 52.7322H73.3081" stroke="#FFA5CA" stroke-width="2.20824" stroke-linecap="round"/>
<path d="M163.846 80.5427H96.988" stroke="#4CA0A5" stroke-width="2.20824" stroke-linecap="round"/>
<path d="M134.554 62.0027H97.4845M141.601 62.0027H164.776" stroke="#FFDA7A" stroke-width="2.20824" stroke-linecap="round"/>
<path d="M134.554 89.8129H74.6397M141.601 89.8129H164.197" stroke="#4CA0A5" stroke-width="2.20824" stroke-linecap="round"/>
<path d="M163.846 71.2723H104.223" stroke="#247EDE" stroke-width="2.20824" stroke-linecap="round"/>
<path d="M163.846 99.0831H104.223" stroke="#4CA0A5" stroke-width="2.20824" stroke-linecap="round"/>
<rect width="85.5031" height="32.1894" rx="3.47632" transform="matrix(-1 0 0 1 115.503 13)" fill="#00787F"/>
<path d="M82.9384 22.9686H39.0383" stroke="white" stroke-width="2.01184" stroke-linecap="round"/>
<path d="M82.9384 28.7797H72.609" stroke="white" stroke-width="2.01184" stroke-linecap="round"/>
<path d="M68.0397 28.7793H39.6838" stroke="white" stroke-width="2.01184" stroke-linecap="round"/>
<path d="M82.9384 35.2355H53.8869" stroke="white" stroke-width="2.01184" stroke-linecap="round"/>
<circle r="9.03826" transform="matrix(-1 0 0 1 98.4325 28.7796)" fill="white"/>
<rect width="58.3433" height="21.9645" rx="3.47632" transform="matrix(-1 0 0 1 90.0133 59.6848)" fill="#F09B96"/>
<path d="M67.7927 66.4877H37.8373" stroke="white" stroke-width="1.37278" stroke-linecap="round"/>
<path d="M67.7927 70.4532H60.7444" stroke="white" stroke-width="1.37278" stroke-linecap="round"/>
<path d="M58.1012 70.4534H38.2778" stroke="white" stroke-width="1.37278" stroke-linecap="round"/>
<path d="M67.7927 74.858H47.9693" stroke="white" stroke-width="1.37278" stroke-linecap="round"/>
<circle r="6.16728" transform="matrix(-1 0 0 1 78.3652 70.453)" fill="white"/>
<path d="M74.0779 103.533H74.3469V108.823H74.0779V103.533Z" fill="#E2EBFF"/>
<path d="M74.0783 112.712H74.3472V114.409H74.0783V112.712Z" fill="#407BFF"/>
<path d="M69.2971 124.155H46.5186C44.4989 124.155 42.8477 122.503 42.8477 120.484V104.229C42.8477 102.21 44.4989 100.558 46.5186 100.558H69.2971C71.3168 100.558 72.968 102.21 72.968 104.229V120.484C72.968 122.503 71.3141 124.155 69.2971 124.155Z" fill="#4CA0A5"/>
<path d="M73.7662 100.472C73.8361 100.472 73.9034 100.445 73.9572 100.394L76.0333 98.3182C76.1382 98.2133 76.1382 98.0439 76.0333 97.939C75.9284 97.8341 75.759 97.8341 75.6541 97.939L73.578 100.015C73.4731 100.12 73.4731 100.289 73.578 100.394C73.6291 100.445 73.6963 100.472 73.7662 100.472Z" fill="#E2EBFF"/>
<path d="M72.4324 99.9024C72.5588 99.9024 72.6717 99.8136 72.6959 99.6846L73.0778 97.6998C73.1047 97.5546 73.0106 97.4121 72.8653 97.3852C72.7201 97.3583 72.5776 97.4524 72.5507 97.5977L72.1688 99.5824C72.1419 99.7276 72.236 99.8701 72.3813 99.897C72.3974 99.8997 72.4162 99.9024 72.4324 99.9024Z" fill="#E2EBFF"/>
<path d="M74.3365 101.806C74.3526 101.806 74.3714 101.803 74.3875 101.801L76.3723 101.419C76.5175 101.392 76.6143 101.249 76.5847 101.104C76.5578 100.959 76.4153 100.862 76.2701 100.892L74.2854 101.274C74.1401 101.301 74.0433 101.443 74.0729 101.588C74.0998 101.717 74.2101 101.806 74.3365 101.806Z" fill="#E2EBFF"/>
<path d="M72.4248 111.283L79.027 109.258L72.4248 116.259V111.283Z" fill="#4CA0A5"/>
<path d="M51.8051 116.57H64.8859C64.8859 115.871 64.6089 115.202 64.1141 114.709L63.8532 114.446C63.4283 114.024 63.1917 113.448 63.1917 112.848V109.807C63.1917 107.072 60.9246 104.867 58.168 104.963C57.7619 104.98 57.372 105.044 56.9982 105.154C57.1434 105.539 57.2241 105.958 57.2241 106.394C57.2241 108.341 55.6455 109.922 53.6957 109.922C53.6285 109.922 53.5639 109.92 53.4994 109.917C53.4994 109.92 53.4994 109.92 53.4994 109.922V112.848C53.4994 113.448 53.26 114.024 52.8378 114.446L52.5769 114.709C52.3295 114.957 52.1359 115.247 52.0041 115.562C51.875 115.879 51.8051 116.221 51.8051 116.57Z" fill="#FEC93F"/>
<path d="M55.7587 117.278C55.8232 118.687 57.0065 119.8 58.4426 119.749C59.7846 119.703 60.8442 118.604 60.9302 117.278H55.7587Z" fill="#FEC93F"/>
<path d="M51.9106 108.338C50.8364 107.352 50.7653 105.681 51.7519 104.607C52.7384 103.533 54.409 103.462 55.4832 104.448C56.5574 105.435 56.6285 107.105 55.6419 108.18C54.6554 109.254 52.9848 109.325 51.9106 108.338Z" fill="#CB5E8B"/>
<path d="M54.4953 105V107.657H53.7611V105.917C53.6427 106.008 53.5271 106.081 53.4168 106.135C53.3066 106.191 53.1667 106.245 53 106.296V105.702C53.2474 105.621 53.4384 105.527 53.5755 105.414C53.7127 105.301 53.8202 105.164 53.8955 105H54.4953Z" fill="white"/>
<path d="M123 36.5141C123 35.6779 123.678 35 124.514 35H138.266C139.102 35 139.78 35.6779 139.78 36.5141V39.0792C139.78 39.9154 139.102 40.5933 138.266 40.5933H124.514C123.678 40.5933 123 39.9154 123 39.0792V36.5141Z" fill="#335EEA"/>
<path d="M74.1866 123.827C74.1866 123.208 73.7128 122.702 73.1162 122.702C72.7301 122.702 72.3967 122.908 72.2212 123.246V123.208C72.2212 122.589 71.7474 122.064 71.1508 122.064C70.7648 122.064 70.4313 122.27 70.2559 122.589V122.57C70.2559 121.951 69.7821 121.426 69.1855 121.426C68.7994 121.426 68.466 121.633 68.2905 121.951V118.144C68.2905 117.844 68.1852 117.544 67.9747 117.338C67.7816 117.131 67.5009 117 67.2201 117C66.641 117 66.1672 117.506 66.1672 118.144V125.177C66.1672 125.252 66.1321 125.29 66.0795 125.327C66.0268 125.346 65.9567 125.346 65.9216 125.29L64.8336 124.146C64.4651 123.752 63.9036 123.696 63.4649 124.015C63.2192 124.202 63.0437 124.483 63.0086 124.802C62.9735 125.121 63.0437 125.459 63.2543 125.703L65.9391 129.172C66.6937 130.166 67.8167 130.729 69.01 130.729H70.677C71.6071 130.729 72.502 130.335 73.1513 129.622C73.8181 128.91 74.1866 127.972 74.1866 126.978V123.827Z" fill="#D1DBFB"/>
<path d="M241 89.9563V124.463C241 125.576 240.072 126.689 238.774 126.689H201.484C199.629 126.689 198.145 125.205 198.145 123.35V89.9563C198.145 88.6577 199.072 87.7301 200.371 87.7301H238.774C239.887 87.7301 241 88.6577 241 89.9563Z" fill="#FDEAAF"/>
<path d="M204.082 116.3C204.453 116.671 204.453 117.043 204.267 117.599C203.896 118.341 202.968 119.269 201.855 120.196C201.67 120.382 201.67 120.382 201.484 120.567C200.371 121.495 200.928 121.681 199.073 123.721C197.032 125.948 195.548 125.948 194.991 125.762C194.62 125.576 195.362 124.463 196.104 123.165C196.104 123.165 196.104 122.979 196.29 122.979C196.475 122.794 196.475 122.608 196.661 122.423C197.588 120.753 197.403 120.011 197.217 117.785C197.032 115.929 194.249 107.024 194.249 107.024L198.33 106.282C198.33 106.282 199.629 113.332 200.928 114.445C201.67 115.002 202.412 115.002 203.154 115.373C203.154 115.373 203.154 115.373 203.339 115.373C203.339 115.744 203.711 115.929 204.082 116.3Z" fill="#FFA089"/>
<path d="M204.082 116.301C204.453 116.672 204.453 117.043 204.267 117.599C203.896 118.341 202.968 119.269 201.855 120.196C201.67 120.382 201.67 120.382 201.484 120.567C200.371 121.495 200.928 121.681 199.072 123.721C197.032 125.948 195.548 125.948 194.991 125.762C194.62 125.577 195.362 124.463 196.104 123.165C196.475 122.979 198.516 122.237 199.815 120.382C201.113 118.712 202.041 116.672 202.783 115.373C202.783 115.373 202.783 115.373 202.968 115.373C203.339 115.744 203.71 115.929 204.082 116.301Z" fill="#0A0648"/>
<path d="M171.244 113.888C171.059 115.187 169.204 115.001 167.163 114.445C165.122 113.888 165.679 114.445 162.71 114.259C159.928 113.888 159 112.961 159 112.404C159 112.033 160.299 111.848 161.783 111.662C161.968 111.662 162.154 111.662 162.339 111.662C164.009 111.477 165.308 110.363 166.792 109.436C168.276 108.508 170.502 105.169 170.502 105.169L174.398 105.54C174.398 105.54 172.358 108.694 171.615 109.992C171.059 110.734 171.244 111.848 171.244 112.59C171.244 112.961 171.244 113.332 171.244 113.888Z" fill="#FFA089"/>
<path d="M186.086 88.8436L194.434 111.477C194.434 111.477 195.733 111.663 197.032 111.292C198.145 110.92 199.443 110.178 199.443 110.178C199.443 110.178 197.403 88.4725 193.507 83.8345C189.796 79.1965 186.086 88.8436 186.086 88.8436Z" fill="#7679B4"/>
<path d="M219.48 79.7529C219.48 79.7529 195.362 71.5901 189.982 73.2597C184.602 74.9294 168.462 107.21 168.462 107.21C168.462 107.21 168.833 107.767 169.76 108.138C170.688 108.509 172.914 108.509 172.914 108.509C172.914 108.509 187.57 95.8932 189.24 92.3683C190.91 88.6579 191.652 85.3186 193.507 85.5041C194.063 85.6896 196.661 86.6172 200.186 87.7303C207.977 87.7303 217.068 87.7303 221.891 87.7303C225.045 83.0923 224.118 77.8977 224.118 77.8977L219.48 79.7529Z" fill="#4B4A8C"/>
<path d="M204.638 41.5353C204.267 40.7932 203.896 39.3091 203.525 36.7118C203.525 36.8973 204.082 40.2367 205.195 41.9064C210.204 45.2457 219.851 56.1914 219.665 58.4177C219.665 58.4177 223.005 52.6665 223.19 52.6665C223.19 52.6665 229.498 44.6892 222.077 40.0512C218.367 37.6394 218.367 34.6711 218.552 32.2593C218.738 29.662 217.439 18.5308 210.018 21.4991C210.018 21.4991 208.72 20.9426 208.349 21.1281C208.349 21.1281 208.72 21.1281 209.091 21.4991C208.163 21.4991 207.05 21.4991 205.937 22.0557C202.968 23.5399 200.371 37.6394 204.638 41.5353Z" fill="#463342"/>
<path d="M205.566 42.2777C205.566 42.2777 207.977 43.5764 209.833 43.0198C211.502 42.4632 212.615 40.237 212.615 40.237C211.873 40.0515 211.688 39.1239 211.688 34.6714H211.317L205.751 35.7845C205.751 35.7845 205.937 37.4542 205.937 39.1239C205.937 40.7936 205.937 42.0922 205.566 42.2777Z" fill="#FFA089"/>
<path d="M205.937 35.9702C205.937 35.9702 206.122 37.6399 206.122 39.3095C209.276 39.3095 210.946 36.3412 211.502 34.8571L205.937 35.9702Z" fill="#FFA089"/>
<path d="M212.059 34.2996C212.059 34.2996 213.728 31.7023 214.1 29.476C214.285 27.8063 213.543 22.0552 207.606 22.7973C207.606 22.7973 205.937 22.9828 204.267 24.0959C202.968 25.0235 201.113 26.8787 203.154 31.8878L203.71 33.5575L212.059 34.2996Z" fill="#463342"/>
<path d="M204.824 37.6389C204.824 37.6389 212.245 37.8244 212.245 33.1864C212.245 28.5484 213.172 25.58 208.534 25.209C203.896 25.0235 202.969 26.6932 202.597 28.1773C202.041 29.6615 202.969 37.4533 204.824 37.6389Z" fill="#FFA089"/>
<path d="M211.873 25.9519C211.873 25.9519 206.864 22.427 205.195 24.8388C204.638 24.4677 203.896 24.0967 202.783 25.5809C201.113 27.6216 202.597 31.332 202.597 31.332C203.339 31.332 203.525 28.9202 203.896 27.8071C204.082 26.8795 205.009 25.9519 205.566 25.5809C206.122 27.065 207.977 30.5899 210.389 31.1465C213.543 31.8886 214.842 31.1465 214.842 31.1465C214.842 31.1465 212.244 29.2913 211.873 25.9519Z" fill="#463342"/>
<path d="M225.045 79.7524C224.674 80.8655 223.376 81.051 221.706 80.8655C218.552 80.4945 213.914 78.4538 210.575 76.9696C205.566 74.7433 203.154 76.7841 201.484 75.4854C199.814 74.0013 203.339 71.0329 200.371 56.3768C199.258 51.3678 205.751 40.7931 205.751 40.7931C205.751 40.7931 206.122 43.5759 212.43 40.2366C212.43 40.2366 215.027 43.7615 217.439 48.2139C220.036 53.223 222.448 59.1596 221.706 62.128C220.778 68.0646 226.344 76.5985 225.045 79.7524Z" fill="#0063C3"/>
<path d="M205.937 40.9789L202.041 56.7481C202.041 56.7481 201.484 57.6757 200.742 58.7888C199.072 61.5716 195.733 66.3952 193.692 66.9517C192.579 67.1372 190.539 66.3952 188.127 65.0965C183.489 62.8703 178.109 59.1599 178.109 59.1599C177.738 57.1191 179.593 55.4495 179.593 55.4495C179.593 55.4495 190.539 59.5309 191.652 59.7164C194.063 59.902 196.475 48.3997 198.701 44.6893C200.371 41.721 205.937 40.9789 205.937 40.9789Z" fill="#006EDC"/>
<path d="M209.647 65.6533C209.647 65.6533 208.163 64.3547 206.679 64.7257C205.195 65.0968 204.452 66.0244 204.452 66.5809C204.452 66.952 205.38 68.4361 206.493 68.4361C207.606 68.6217 210.76 67.6941 210.76 67.6941L209.647 65.6533Z" fill="#FFA089"/>
<path d="M212.801 40.4222C212.801 40.4222 218.738 40.7933 220.964 43.7616C223.932 47.8431 230.982 66.024 227.643 68.4358C223.932 71.0331 209.276 68.4358 209.276 68.4358C209.276 68.4358 208.905 66.3951 209.462 65.282C210.018 64.3544 220.222 62.6847 220.593 62.1281C220.964 61.7571 214.842 53.0376 214.842 51.739C214.656 50.2548 212.801 40.4222 212.801 40.4222Z" fill="#FFAAC4"/>
<path d="M212.801 40.4222C212.801 40.4222 218.738 40.7933 220.964 43.7616C223.932 47.8431 230.982 66.024 227.643 68.4358C223.932 71.0331 209.276 68.4358 209.276 68.4358C209.276 68.4358 208.905 66.3951 209.462 65.282C210.018 64.3544 220.222 62.6847 220.593 62.1281C220.964 61.7571 214.842 53.0376 214.842 51.739" fill="#006EDC"/>
<path d="M207.977 73.8165H185.715L181.633 59.9025H203.896L207.977 73.8165Z" fill="#7679B4"/>
<path d="M215.027 73.2592H185.715L185.9 73.8157H215.027V73.2592Z" fill="#493545"/>
<path opacity="0.2" d="M192.95 67.1373C192.765 66.2097 193.136 65.4677 194.063 65.4677C194.991 65.4677 195.919 66.2097 196.104 67.1373C196.29 68.0649 195.919 68.807 194.991 68.807C194.063 68.807 193.136 68.0649 192.95 67.1373Z" fill="white"/>
<path d="M179.407 56.006C179.407 56.006 179.036 54.1508 177.923 54.1508C176.81 54.1508 173.656 53.5943 173.471 53.9653C173.285 54.3364 173.471 56.1916 174.213 56.7481C174.955 57.3047 178.48 58.2323 178.48 58.2323L179.407 56.006Z" fill="#FFA089"/>
<path d="M167.163 114.445C165.122 113.888 165.679 114.445 162.71 114.259C159.928 113.888 159 112.961 159 112.404C159 112.033 160.299 111.848 161.783 111.662C161.783 111.662 163.453 112.961 165.864 112.961C167.72 112.961 169.76 112.404 171.244 112.404C171.244 112.775 171.244 113.332 171.244 113.703C170.873 115.187 169.204 114.816 167.163 114.445Z" fill="#0A0648"/>
<path d="M230.138 16.7289H224.642C224.288 16.7289 224 17.0237 224 17.3869V27.324C224 27.6859 224.288 27.982 224.642 27.982H227.263C227.618 27.982 227.906 28.2768 227.906 28.64L228.092 30.9997L231.646 28.1755C231.767 28.0518 231.93 27.982 232.101 27.982H240.06C240.414 27.982 240.703 27.6859 240.703 27.324V23.9065" stroke="#005F65" stroke-width="1.37151" stroke-linecap="round" stroke-linejoin="round"/>
<rect x="232.184" y="12" width="10.5228" height="10.0487" rx="1.71439" fill="#005F65"/>
<path d="M235.107 15.5466C235.338 15.5466 235.565 15.4773 235.757 15.3474C235.949 15.2175 236.099 15.0329 236.187 14.8169C236.276 14.6008 236.299 14.3631 236.254 14.1338C236.209 13.9045 236.097 13.6938 235.934 13.5285C235.77 13.3632 235.562 13.2506 235.335 13.205C235.109 13.1594 234.873 13.1828 234.66 13.2722C234.446 13.3617 234.264 13.5132 234.135 13.7077C234.007 13.9021 233.938 14.1306 233.938 14.3644C233.938 14.6779 234.062 14.9784 234.281 15.2C234.5 15.4216 234.797 15.5463 235.107 15.5466Z" fill="white"/>
<path d="M232.473 20.0615C232.231 20.3527 232.27 20.7851 232.562 21.0272C232.853 21.2694 233.285 21.2297 233.527 20.9385L232.473 20.0615ZM235.399 17.6154L235.943 17.1975C235.816 17.0323 235.621 16.9337 235.412 16.9297C235.204 16.9257 235.005 17.0166 234.872 17.1769L235.399 17.6154ZM237.456 21.4178C237.687 21.7181 238.118 21.7745 238.418 21.5438C238.718 21.313 238.775 20.8825 238.544 20.5822L237.456 21.4178ZM233.527 20.9385L235.926 18.0538L234.872 17.1769L232.473 20.0615L233.527 20.9385ZM234.855 18.0332L237.456 21.4178L238.544 20.5822L235.943 17.1975L234.855 18.0332Z" fill="white"/>
<path d="M242 18.502L239.785 15.842L236.862 18.502" stroke="white" stroke-width="1.37151" stroke-linecap="round" stroke-linejoin="round"/>
</g>
<defs>
<clipPath id="clip0">
<rect width="270" height="135" fill="white"/>
</clipPath>
</defs>
</svg>
